<svg width="19" height="18" viewBox="0 0 19 18" fill="none" xmlns="http://www.w3.org/2000/svg">
<path d="M16.1953 0C16.7257 0 17.2345 0.210714 17.6095 0.585786C17.9846 0.960859 18.1953 1.46957 18.1953 2V16C18.1953 16.5304 17.9846 17.0391 17.6095 17.4142C17.2345 17.7893 16.7257 18 16.1953 18H2.19531C1.66488 18 1.15617 17.7893 0.781099 17.4142C0.406026 17.0391 0.195313 16.5304 0.195312 16V2C0.195312 1.46957 0.406026 0.960859 0.781099 0.585786C1.15617 0.210714 1.66488 0 2.19531 0H16.1953ZM15.6953 15.5V10.2C15.6953 9.33539 15.3518 8.5062 14.7405 7.89483C14.1291 7.28346 13.2999 6.94 12.4353 6.94C11.5853 6.94 10.5953 7.46 10.1153 8.24V7.13H7.32531V15.5H10.1153V10.57C10.1153 9.8 10.7353 9.17 11.5053 9.17C11.8766 9.17 12.2327 9.3175 12.4953 9.58005C12.7578 9.8426 12.9053 10.1987 12.9053 10.57V15.5H15.6953ZM4.07531 5.56C4.52088 5.56 4.94819 5.383 5.26325 5.06794C5.57831 4.75288 5.75531 4.32556 5.75531 3.88C5.75531 2.95 5.00531 2.19 4.07531 2.19C3.6271 2.19 3.19724 2.36805 2.8803 2.68499C2.56337 3.00193 2.38531 3.43178 2.38531 3.88C2.38531 4.81 3.14531 5.56 4.07531 5.56ZM5.46531 15.5V7.13H2.69531V15.5H5.46531Z" fill="white"/>
</svg>
